# xmcd
#
# Track frame offsets: 
#        150
#        13571
#        26728
#        38248
#        48101
#        61818
#        74638
#        87120
#        98743
#        109673
#        121036
#        135226
#        147853
#        158973
#        170171
#        183418
#        195613
#        209136
#        219328
#        231148
#        242798
#        255418
#        268406
#        282003
#        294838
#        306046
#        318798
#        329526
#
# Disc length: 4573 seconds
#
# Revision: 1
# Processed by: cddbd v1.5.2PL0 Copyright (c) Steve Scherf et al.
# Submitted via: ExactAudioCopy v0.90b4
#
DISCID=9211db1c
DTITLE=Calloway, Cab - Volume 2 1935-1940 [CD2]
DYEAR=2003
DGENRE=Big Band/Jazz
TTITLE0=Moon At Sea 
TTITLE1=I'm Always In The Mood For You 
TTITLE2=She's Tall, She's Tan, She's Terrific 
TTITLE3=Go South, Young Man 
TTITLE4=Mama, I Wanna Make Rhythm 
TTITLE5=Hi-De-Ho Romeo 
TTITLE6=Queen Isabelle 
TTITLE7=Savage Rhythm 
TTITLE8=Every Day's A Holiday 
TTITLE9=Jubilee 
TTITLE10=In An Old English Village 
TTITLE11=Error In The News, (Just An) 
TTITLE12=A Minor Breakdown (Rustle Of Swing)
TTITLE13=Bugle Blues 
TTITLE14=One Big Union For Two 
TTITLE15=Doing The Reactionary 
TTITLE16=Rustle Of Swing 
TTITLE17=Three Swings And Out 
TTITLE18=I Like Music (With A Swing Like That) 
TTITLE19=Foolin' With You 
TTITLE20=Azure 
TTITLE21=Skrontch 
TTITLE22=We're Breakin' Up A Lovely Affair 
TTITLE23=Peck-A-Doodle-Do 
TTITLE24=At The Clambake Carnival 
TTITLE25=Hoy Hoy 
TTITLE26=Miss Hallelujah Brown 
TTITLE27=The Conga-Conga
EXTD=YEAR: 2003
EXTT0=
EXTT1=
EXTT2=
EXTT3=
EXTT4=
EXTT5=
EXTT6=
EXTT7=
EXTT8=
EXTT9=
EXTT10=
EXTT11=
EXTT12=
EXTT13=
EXTT14=
EXTT15=
EXTT16=
EXTT17=
EXTT18=
EXTT19=
EXTT20=
EXTT21=
EXTT22=
EXTT23=
EXTT24=
EXTT25=
EXTT26=
EXTT27=
PLAYORDER=
